<?xml version="1.0" encoding="UTF-8" standalone="no"?>
<!DOCTYPE svg PUBLIC "-//W3C//DTD SVG 1.1//EN" "http://www.w3.org/Graphics/SVG/1.1/DTD/svg11.dtd">
<svg width="100%" height="100%" viewBox="0 0 512 512" version="1.1" xmlns="http://www.w3.org/2000/svg" xmlns:xlink="http://www.w3.org/1999/xlink" xml:space="preserve" xmlns:serif="http://www.serif.com/" style="fill-rule:evenodd;clip-rule:evenodd;stroke-linejoin:round;stroke-miterlimit:2;">
    <g transform="matrix(1.06756,0,0,1.27996,-16.6946,-21.48)">
        <rect x="16" y="16" width="480" height="400" style="fill:rgb(171,146,122);fill-rule:nonzero;"/>
        <path d="M104,88L144,48L208,112L128,112L104,88Z" style="fill:rgb(72,47,32);fill-opacity:0.77;fill-rule:nonzero;"/>
        <path d="M128,112L88,72L48,112L128,112Z" style="fill:rgb(72,47,32);fill-rule:nonzero;"/>
        <path d="M128,192C130.667,186.667 138.667,178.667 144,176C148.77,173.615 155.23,173.615 160,176C165.333,178.667 170.667,189.333 176,192C180.77,194.385 187.23,189.615 192,192C197.333,194.667 205.333,202.667 208,208C210.385,212.77 210.385,219.23 208,224C205.333,229.333 197.333,237.333 192,240C187.23,242.385 180.77,242.385 176,240C170.667,237.333 165.333,226.667 160,224C155.23,221.615 148.77,226.385 144,224C138.667,221.333 130.667,213.333 128,208C125.615,203.23 125.615,196.77 128,192Z" style="fill:rgb(74,146,187);fill-rule:nonzero;"/>
        <path d="M184,416C184,416 156,382.667 144,376C134.676,370.82 120,378.667 112,376C104.845,373.615 101.333,362.667 96,360C91.23,357.615 84.77,362.385 80,360C74.667,357.333 71.317,345.829 64,344C53.333,341.333 16,344 16,344L16,416L184,416Z" style="fill:rgb(126,203,146);fill-rule:nonzero;"/>
        <g transform="matrix(-1,0,0,-1,688,384)">
            <path d="M304,208C301.615,200.845 290.667,197.333 288,192C285.615,187.23 290.385,180.77 288,176C285.333,170.667 272,165.333 272,160C272,154.667 282.667,146.667 288,144C292.77,141.615 299.23,141.615 304,144C309.333,146.667 314.667,157.333 320,160C324.77,162.385 331.23,162.385 336,160C341.333,157.333 344.845,146.385 352,144C360,141.333 374.459,139.23 384,144C394.667,149.333 410.667,168 416,176C418.958,180.438 418.385,187.23 416,192C413.333,197.333 405.333,205.333 400,208C395.23,210.385 388.77,205.615 384,208C378.667,210.667 375.155,221.615 368,224C360,226.667 344,221.333 336,224C328.845,226.385 325.333,237.333 320,240C315.23,242.385 306.385,244.77 304,240C301.333,234.667 306.667,216 304,208Z" style="fill:rgb(74,146,187);fill-rule:nonzero;"/>
        </g>
        <path d="M272,16C272,16 312,53.333 320,64C323.2,68.267 317.042,75.562 320,80C325.333,88 341.333,106.667 352,112C361.541,116.77 376,114.667 384,112C391.155,109.615 394.667,98.667 400,96C404.77,93.615 411.23,98.385 416,96C421.333,93.333 424.604,81.479 432,80C445.333,77.333 496,80 496,80L496,16L272,16Z" style="fill:rgb(126,203,146);fill-rule:nonzero;"/>
        <g transform="matrix(-1,0,0,1,485.585,0)">
            <g transform="matrix(0.707,-0.707,0.707,0.707,-68.144,379.48)">
                <rect x="401.376" y="264" width="45.256" height="16" style="fill:rgb(206,36,36);fill-rule:nonzero;"/>
            </g>
            <g transform="matrix(0.707,-0.707,0.707,0.707,-68.144,379.48)">
                <rect x="416" y="249.376" width="16" height="45.256" style="fill:rgb(206,36,36);fill-rule:nonzero;"/>
            </g>
            <g transform="matrix(1,0,0,0.878226,3.35171,31.0471)">
                <path d="M232,376C214.352,376 200,361.648 200,344L200,296C200,287.176 192.824,280 184,280C175.176,280 168,287.176 168,296L168,300C168,319.848 151.848,336 132,336C112.152,336 96,319.848 96,300L96,284C96,272.976 87.024,264 76,264C56.152,264 40,247.848 40,228L40,136L56,136L56,228C56,239.024 64.976,248 76,248C95.848,248 112,264.152 112,284L112,300C112,311.024 120.976,320 132,320C143.024,320 152,311.024 152,300L152,296C152,278.352 166.352,264 184,264C201.648,264 216,278.352 216,296L216,344C216,352.824 223.176,360 232,360C240.824,360 248,352.824 248,344L248,320C248,306.768 258.768,296 272,296L280,296C284.408,296 288,292.408 288,288C288,274.768 298.768,264 312,264L384,264L384,280L312,280C307.592,280 304,283.592 304,288C304,301.232 293.232,312 280,312L272,312C267.592,312 264,315.592 264,320L264,344C264,361.648 249.648,376 232,376Z" style="fill:rgb(255,255,0);fill-rule:nonzero;"/>
            </g>
        </g>
    </g>
</svg>
